<?xml version="1.0" standalone="no"?>
<!DOCTYPE svg PUBLIC "-//W3C//DTD SVG 20010904//EN"
 "http://www.w3.org/TR/2001/REC-SVG-20010904/DTD/svg10.dtd">
<svg version="1.0" xmlns="http://www.w3.org/2000/svg"
 width="400.000000pt" height="170.000000pt" viewBox="1000 -900 564.000000 564.000000"
 preserveAspectRatio="xMidYMid meet">

<g transform="translate(0.000000,564.000000) scale(0.450,-0.4500)"
fill="#fff" stroke="none">
<path d="M1365 3128 c-3 -7 -4 -152 -3 -322 l3 -310 105 1 105 0 3 80 3 80 87
5 c151 9 228 66 254 190 24 112 -29 223 -124 264 -57 24 -425 35 -433 12z
m337 -175 c23 -20 24 -80 1 -105 -12 -13 -30 -18 -70 -18 l-53 0 0 70 0 70 52
0 c34 0 58 -6 70 -17z"/>
<path d="M2114 3083 c-14 -32 -34 -78 -44 -103 -23 -57 -122 -291 -166 -394
-19 -43 -33 -80 -32 -81 6 -6 44 -7 130 -6 l86 1 18 45 17 46 116 -3 116 -3
15 -42 14 -43 113 0 c62 0 113 4 113 8 0 5 -52 137 -115 293 -64 156 -120 296
-127 312 l-10 27 -109 0 -109 0 -26 -57z m186 -335 c0 -4 -27 -8 -60 -8 -33 0
-60 1 -60 3 0 8 49 148 56 158 6 10 64 -129 64 -153z"/>
<path d="M2672 2819 l3 -321 88 1 c48 0 96 0 107 1 20 0 20 5 18 318 l-3 317
-108 3 -107 3 2 -322z"/>
<path d="M2999 3136 c-2 -2 -3 -148 -1 -323 l3 -318 82 2 c45 1 88 2 94 3 9 0
13 42 15 157 l3 157 85 -109 c47 -61 101 -131 120 -157 l35 -47 93 -1 92 0 0
320 0 321 -96 -3 -97 -3 1 -158 c0 -86 -3 -155 -7 -153 -4 3 -61 75 -127 160
l-119 156 -86 0 c-47 0 -88 -2 -90 -4z"/>
<path style="fill:#F9C869;fill-opacity:1;fill-rule:nonzero;stroke:none" d="M3742 2933 c2 -115 6 -207 11 -205 4 1 121 2 260 2 l252 0 -2 202 -2
203 -261 3 -260 2 2 -207z"/>
<path d="M3714 2687 c-3 -8 -4 -53 -2 -101 l3 -88 90 -2 90 -1 2 -220 2 -220
105 -3 106 -3 2 223 3 223 88 3 87 3 0 99 0 100 -285 0 c-228 0 -287 -3 -291
-13z"/>
</g>
</svg>
